<svg xmlns="http://www.w3.org/2000/svg" width="432" height="432" viewBox="0 0 108 108"><defs><clipPath id="cwaveformlime432squircle"><path d="M 54 0 C 14 0 0 14 0 54 C 0 94 14 108 54 108 C 94 108 108 94 108 54 C 108 14 94 0 54 0 Z"></path></clipPath><linearGradient id="gwaveformlime432squircle" x1="0" y1="0" x2="0" y2="1"><stop offset="0" stop-color="#A8E04E"></stop><stop offset="1" stop-color="#8FC135"></stop></linearGradient></defs><g clip-path="url(#cwaveformlime432squircle)"><rect width="108" height="108" fill="url(#gwaveformlime432squircle)"></rect><g opacity="0.08"><circle cx="54" cy="54" r="20" fill="none" stroke="#0A0A0A" stroke-width="0.6"></circle><circle cx="54" cy="54" r="40" fill="none" stroke="#0A0A0A" stroke-width="0.6"></circle></g><rect x="21.5" y="47" width="5" height="14" rx="2.5" fill="#0A0A0A"></rect><rect x="29.5" y="39" width="5" height="30" rx="2.5" fill="#0A0A0A"></rect><rect x="37.5" y="43" width="5" height="22" rx="2.5" fill="#0A0A0A"></rect><rect x="45" y="27" width="6" height="54" rx="3" fill="#0A0A0A"></rect><rect x="54.5" y="34" width="5" height="40" rx="2.5" fill="#0A0A0A"></rect><rect x="62" y="23" width="6" height="62" rx="3" fill="#0A0A0A"></rect><rect x="71.5" y="40" width="5" height="28" rx="2.5" fill="#0A0A0A"></rect><rect x="79.5" y="45" width="5" height="18" rx="2.5" fill="#0A0A0A"></rect></g></svg>